<svg width="26" height="26" viewBox="0 0 26 26" fill="none" xmlns="http://www.w3.org/2000/svg">
<path d="M13 25.8334C12.4806 25.8334 12.0455 25.6574 11.6947 25.3054C11.3427 24.9546 11.1667 24.5195 11.1667 24V14.8334H2.00002C1.48058 14.8334 1.04485 14.6574 0.692854 14.3054C0.342076 13.9546 0.166687 13.5195 0.166687 13C0.166687 12.4806 0.342076 12.0449 0.692854 11.6929C1.04485 11.3421 1.48058 11.1667 2.00002 11.1667H11.1667V2.00002C11.1667 1.48058 11.3427 1.04485 11.6947 0.692854C12.0455 0.342076 12.4806 0.166687 13 0.166687C13.5195 0.166687 13.9552 0.342076 14.3072 0.692854C14.658 1.04485 14.8334 1.48058 14.8334 2.00002V11.1667H24C24.5195 11.1667 24.9546 11.3421 25.3054 11.6929C25.6574 12.0449 25.8334 12.4806 25.8334 13C25.8334 13.5195 25.6574 13.9546 25.3054 14.3054C24.9546 14.6574 24.5195 14.8334 24 14.8334H14.8334V24C14.8334 24.5195 14.658 24.9546 14.3072 25.3054C13.9552 25.6574 13.5195 25.8334 13 25.8334Z" fill="#F5F5F5"/>
</svg>
