<svg width="340" height="81" viewBox="0 0 340 81" fill="none" xmlns="http://www.w3.org/2000/svg">
<path d="M19.3068 80.0329C13.298 80.0329 8.71622 78.3655 5.56157 75.0308C2.40692 71.622 0.82959 66.7682 0.82959 60.4693V19.5636C0.82959 13.2647 2.40692 8.44792 5.56157 5.11321C8.71622 1.7044 13.298 0 19.3068 0C25.3157 0 29.8974 1.7044 33.0521 5.11321C36.2068 8.44792 37.7841 13.2647 37.7841 19.5636V26.233H26.0668V18.7855C26.0668 13.6723 23.9261 11.1157 19.6448 11.1157C15.3635 11.1157 13.2229 13.6723 13.2229 18.7855V61.3585C13.2229 66.3976 15.3635 68.9172 19.6448 68.9172C23.9261 68.9172 26.0668 66.3976 26.0668 61.3585V46.1301H19.8702V35.0144H37.7841V60.4693C37.7841 66.7682 36.2068 71.622 33.0521 75.0308C29.8974 78.3655 25.3157 80.0329 19.3068 80.0329Z" fill="#E50914"/>
<path d="M46.2345 1.11169H64.5991C70.9835 1.11169 75.6404 2.59379 78.5697 5.55797C81.499 8.44804 82.9637 12.9314 82.9637 19.0079V23.7877C82.9637 31.8651 80.2597 36.9783 74.8517 39.1273V39.3496C77.8561 40.2389 79.9592 42.0544 81.161 44.7963C82.4379 47.5382 83.0763 51.2063 83.0763 55.8008V61.97C83.0763 64.1932 82.9261 66.3978 83.0763 67.8058C83.2265 69.1396 84.1654 72.5855 84.7663 73.9194L70.6831 75.0309C70.6831 73.6415 70.683 71.1405 70.683 69.751C70.6831 68.6394 70.683 65.9717 70.683 63.0816V55.1339C70.683 51.5769 70.0822 49.0944 68.8804 47.6864C67.7537 46.2784 65.7633 45.5744 62.9091 45.5744H58.6278V75.9688L46.2345 77.1151V1.11169ZM63.1344 34.4587C65.6131 34.4587 67.4533 33.8288 68.6551 32.5691C69.9319 31.3093 70.5704 29.1973 70.5704 26.2331V20.2307C70.5704 17.4147 70.0446 15.3768 68.9931 14.117C68.0166 12.8573 66.4393 12.2274 64.2611 12.2274H58.6278V34.4587H63.1344Z" fill="#E50914"/>
<path d="M109.834 72.5298C106.736 72.6687 98.0233 73.0856 95.4692 70.5846C92.2297 67.4125 90.9625 62.0625 90.9625 56.27V18.205C90.9625 12.4125 92.5822 7.93021 95.8217 4.75813C99.0611 1.58604 103.732 0 109.834 0C115.936 0 120.607 1.58604 123.847 4.75813C127.086 7.93021 128.706 12.4125 128.706 18.205V56.27C128.706 62.0625 126.875 66.3009 123.636 69.473C120.396 72.6451 116.031 72.2519 109.834 72.5298ZM109.834 64.1313C114.128 64.1313 116.275 61.7522 116.275 56.9941V17.4809C116.275 12.7228 114.128 10.3438 109.834 10.3438C105.54 10.3438 103.393 12.7228 103.393 17.4809V56.9941C103.393 61.7522 105.54 64.1313 109.834 64.1313Z" fill="#E50914"/>
<path d="M134.339 1.11169H146.349L151.902 54.9338H152.128L158.02 1.11169H171.617L177.509 54.9338H177.736L183.288 1.11169H194.052L186.007 71.1405H170.484L164.819 23.9211H164.592L158.927 71.1405H142.384L134.339 1.11169Z" fill="#E50914"/>
<path d="M200.812 1.11169H233.485V11.1158H213.162V30.6238H229.106V40.6279H213.162L213.205 71.6962L200.812 71.4184V1.11169Z" fill="#E50914"/>
<path d="M239.682 1.11169H252.033V62.5655H272.355V74.753L239.682 72.8078V1.11169Z" fill="#E50914"/>
<path d="M278.552 1.11169H290.945V76.4204L278.552 75.3088V1.11169Z" fill="#E50914"/>
<path d="M311.301 39.6704L297.81 1.11169H310.743L318.994 26.592H319.217L327.69 1.11169H339.285L325.795 39.6704L339.954 80.033H327.021L318.102 52.5233H317.879L310.743 78.6435L297.81 76.9762L311.301 39.6704Z" fill="#E50914"/>
</svg>
